<svg xmlns="http://www.w3.org/2000/svg" viewBox="0 0 512 512" role="img" aria-labelledby="title desc">
  <title id="title">Cowboys Group Holdings Logo Mark Black and White</title>
  <desc id="desc">Monochrome horseshoe star logo mark.</desc>
  <rect width="512" height="512" rx="96" fill="#111111"/>
  <path d="M256 86c98 0 178 80 178 178v72c0 44-36 80-80 80h-24v-48h24c17 0 32-15 32-32v-72c0-71-59-130-130-130s-130 59-130 130v72c0 17 15 32 32 32h24v48h-24c-44 0-80-36-80-80v-72c0-98 80-178 178-178z" fill="#ffffff"/>
  <path d="M332 235c0-43-35-78-78-78-45 0-81 35-81 80s36 80 81 80c17 0 33-5 46-14l29 30c-20 17-46 27-75 27-61 0-111-49-111-110s50-111 111-111c59 0 108 47 111 106h-33z" fill="#d8d8d8"/>
  <path d="M256 170l14 28 31 5-22 22 5 31-28-15-28 15 5-31-22-22 31-5 14-28z" fill="#ffffff"/>
  <circle cx="160" cy="318" r="10" fill="#ffffff"/>
  <circle cx="352" cy="318" r="10" fill="#ffffff"/>
</svg>
