<svg xmlns="http://www.w3.org/2000/svg" viewBox="0 0 1200 360" role="img" aria-labelledby="title desc">
  <title id="title">Cowboys Group Holdings Primary Logo Black and White</title>
  <desc id="desc">Monochrome icon and wordmark lockup.</desc>
  <rect x="0" y="0" width="1200" height="360" rx="44" fill="#ffffff"/>
  <g transform="translate(56 40)">
    <rect width="280" height="280" rx="52" fill="#111111"/>
    <path d="M140 28c57 0 104 47 104 104v40c0 26-22 48-48 48h-14v-28h14c10 0 20-9 20-20v-40c0-42-34-76-76-76s-76 34-76 76v40c0 11 10 20 20 20h14v28h-14c-26 0-48-22-48-48v-40c0-57 47-104 104-104z" fill="#ffffff"/>
    <path d="M185 115c0-26-21-46-46-46-26 0-47 21-47 47s21 47 47 47c10 0 20-3 28-8l17 18c-12 10-27 16-45 16-36 0-65-29-65-65s29-65 65-65c35 0 63 27 65 61h-19z" fill="#cfcfcf"/>
    <path d="M140 77l8 16 18 3-13 13 3 18-16-9-16 9 3-18-13-13 18-3 8-16z" fill="#ffffff"/>
  </g>
  <g transform="translate(380 106)">
    <text x="0" y="56" font-family="Alfa Slab One, Georgia, serif" font-size="68" fill="#111111">COWBOYS GROUP</text>
    <text x="0" y="126" font-family="Alfa Slab One, Georgia, serif" font-size="68" fill="#111111">HOLDINGS</text>
    <text x="2" y="176" font-family="Manrope, Arial, sans-serif" font-size="30" letter-spacing="6" fill="#444444">CULTURE   BUSINESS   LEGACY</text>
  </g>
</svg>
