<svg xmlns="http://www.w3.org/2000/svg" viewBox="0 0 1200 360" role="img" aria-labelledby="title desc">
  <title id="title">Cowboys Group Holdings Primary Logo</title>
  <desc id="desc">A logo with icon and wordmark for Cowboys Group Holdings.</desc>
  <defs>
    <linearGradient id="bg" x1="0" y1="0" x2="1" y2="1">
      <stop offset="0" stop-color="#3b2b21"/>
      <stop offset="1" stop-color="#1e1713"/>
    </linearGradient>
    <linearGradient id="accent" x1="0" y1="0" x2="0" y2="1">
      <stop offset="0" stop-color="#e2ab44"/>
      <stop offset="1" stop-color="#b87426"/>
    </linearGradient>
  </defs>

  <rect x="0" y="0" width="1200" height="360" rx="44" fill="#fff9ec"/>

  <g transform="translate(56 40)">
    <rect width="280" height="280" rx="52" fill="url(#bg)"/>
    <path d="M140 28c57 0 104 47 104 104v40c0 26-22 48-48 48h-14v-28h14c10 0 20-9 20-20v-40c0-42-34-76-76-76s-76 34-76 76v40c0 11 10 20 20 20h14v28h-14c-26 0-48-22-48-48v-40c0-57 47-104 104-104z" fill="url(#accent)"/>
    <path d="M185 115c0-26-21-46-46-46-26 0-47 21-47 47s21 47 47 47c10 0 20-3 28-8l17 18c-12 10-27 16-45 16-36 0-65-29-65-65s29-65 65-65c35 0 63 27 65 61h-19z" fill="#f7e7cb"/>
    <path d="M140 77l8 16 18 3-13 13 3 18-16-9-16 9 3-18-13-13 18-3 8-16z" fill="#f0bf61"/>
  </g>

  <g transform="translate(380 106)">
    <text x="0" y="56" font-family="Alfa Slab One, Georgia, serif" font-size="68" fill="#2d231d">COWBOYS GROUP</text>
    <text x="0" y="126" font-family="Alfa Slab One, Georgia, serif" font-size="68" fill="#2d231d">HOLDINGS</text>
    <text x="2" y="176" font-family="Manrope, Arial, sans-serif" font-size="30" letter-spacing="6" fill="#a9532d">CULTURE   BUSINESS   LEGACY</text>
  </g>
</svg>
